<?xml version="1.0" encoding="UTF-8"?>
<!-- Generator: visioncortex VTracer 0.6.3 -->
<svg version="1.1" xmlns="http://www.w3.org/2000/svg" width="1280" height="1067">
<path d="M0 0 C4.77 1.98 9.01 4.9 13.32 7.71 C16.78 9.92 20.32 11.98 23.85 14.05 C24.57 14.47 25.29 14.9 26.03 15.33 C31.7 18.65 37.43 21.84 43.23 24.93 C43.23 25.59 43.23 26.25 43.23 26.93 C44.03 27.15 44.84 27.38 45.66 27.61 C52.18 30.01 57.83 33.56 63.39 37.67 C65.16 38.88 66.89 39.8 68.81 40.72 C73.76 43.15 78.52 45.87 83.29 48.61 C84.21 49.14 85.13 49.67 86.08 50.22 C93.25 54.34 100.35 58.55 107.42 62.83 C119.06 69.91 119.06 69.91 130.9 76.64 C140.75 82.07 150.42 87.8 160.03 93.63 C164.72 96.46 169.45 99.19 174.25 101.83 C176.61 103.14 178.92 104.52 181.23 105.93 C181.94 106.35 182.64 106.78 183.38 107.21 C184.11 107.66 184.84 108.1 185.6 108.55 C186.48 109.08 187.37 109.61 188.27 110.15 C190.31 111.37 192.34 112.6 194.37 113.82 C210.39 123.5 226.54 132.95 242.89 142.06 C246.35 143.99 249.79 145.95 253.23 147.93 C253.23 148.59 253.23 149.25 253.23 149.93 C253.92 150.01 254.62 150.1 255.34 150.19 C258.9 151.1 261.39 152.69 264.48 154.68 C268.24 157.06 272 159.42 275.91 161.55 C279.87 163.71 283.73 166.01 287.59 168.34 C290.31 169.97 293.05 171.58 295.79 173.18 C307.98 180.27 320.12 187.43 332.19 194.73 C337.47 197.91 342.82 200.95 348.23 203.93 C355.33 207.89 362.32 211.9 369.03 216.5 C372.35 218.66 375.84 220.49 379.33 222.36 C385.84 225.88 392.23 229.63 398.48 233.61 C401.02 235.23 403.57 236.62 406.29 237.93 C409.6 239.53 412.41 241.45 415.35 243.64 C417.17 244.89 418.96 245.84 420.95 246.79 C425.16 248.86 429.19 251.16 433.23 253.55 C434.32 254.19 434.32 254.19 435.43 254.85 C441.25 258.3 447 261.87 452.7 265.53 C456.51 267.95 460.38 270.08 464.46 272.03 C467.2 273.42 469.67 275.22 472.23 276.93 C473.76 277.77 475.3 278.6 476.85 279.43 C482.14 282.27 487.28 285.32 492.41 288.43 C500.07 293.05 507.75 297.61 515.48 302.11 C516.49 302.7 517.5 303.3 518.55 303.9 C525.04 307.68 531.55 311.41 538.14 315 C541.84 317.04 545.24 319.29 548.62 321.81 C551.01 323.47 553.6 324.67 556.23 325.93 C559.23 327.93 559.23 327.93 559.89 329.87 C560.09 331.05 560.09 331.05 560.29 332.26 C560.52 333.57 560.52 333.57 560.76 334.91 C560.99 336.31 560.99 336.31 561.23 337.74 C561.57 339.67 561.91 341.6 562.26 343.53 C562.42 344.46 562.59 345.4 562.76 346.36 C563.51 350.48 564.47 354.54 565.44 358.62 C566.42 362.75 567.36 366.9 568.29 371.05 C568.46 371.82 568.63 372.6 568.81 373.39 C569.94 378.47 570.91 383.57 571.8 388.7 C572.23 391.14 572.23 391.14 573.23 394.3 C574.46 398.77 575.05 403.25 575.66 407.84 C576.1 410.86 576.1 410.86 577.2 413.26 C578.67 417.08 579.1 420.95 579.66 424.99 C580.63 431.5 581.83 437.81 583.54 444.17 C584.26 447.08 584.76 449.97 585.23 452.93 C585.83 456.74 586.56 460.44 587.54 464.18 C589.08 470.14 590.35 476.14 591.6 482.18 C591.81 483.2 592.02 484.22 592.24 485.28 C593.13 489.6 594.02 493.93 594.91 498.25 C595.58 501.5 596.24 504.74 596.91 507.99 C597.22 509.48 597.22 509.48 597.53 511 C598.33 514.9 599.17 518.72 600.28 522.55 C601.64 527.39 602.32 532.29 603.08 537.25 C603.82 541.95 604.92 546.35 606.23 550.93 C607.22 555.39 608.13 559.88 609.04 564.36 C609.44 566.32 609.84 568.28 610.24 570.23 C610.65 572.21 611.05 574.19 611.46 576.16 C612.55 581.52 613.67 586.88 614.79 592.24 C616.05 598.26 617.3 604.27 618.54 610.29 C621.02 622.35 621.02 622.35 623.73 634.36 C625.5 641.86 626.95 649.43 628.43 657 C629.3 661.42 630.16 665.82 631.29 670.19 C632.27 674.08 633.02 677.97 633.73 681.93 C635.46 691.55 635.46 691.55 638.35 700.86 C639.54 705.01 640.31 708.67 639.23 712.93 C636.69 715.56 633.67 717.01 630.41 718.61 C629.54 719.08 628.67 719.54 627.77 720.02 C625.27 721.35 622.75 722.64 620.23 723.93 C618.2 725.02 616.18 726.13 614.16 727.24 C613.33 727.69 612.5 728.13 611.64 728.59 C609.06 730.02 606.55 731.52 604.04 733.05 C600.54 735.17 597.02 737.08 593.34 738.88 C585.76 742.64 578.47 746.94 571.17 751.22 C567.62 753.28 564.03 755.24 560.42 757.19 C557.88 758.57 555.34 759.97 552.82 761.38 C552.03 761.82 551.24 762.26 550.43 762.71 C548.88 763.58 547.32 764.45 545.77 765.32 C541.55 767.68 537.3 769.92 532.97 772.05 C530.88 773.1 528.83 774.21 526.79 775.36 C525.66 776 525.66 776 524.51 776.64 C523.76 777.06 523 777.49 522.23 777.93 C520.73 778.76 519.23 779.59 517.73 780.43 C515.5 781.66 513.27 782.9 511.05 784.14 C510.32 784.54 509.6 784.95 508.85 785.36 C508.11 785.78 507.37 786.19 506.61 786.61 C504.92 787.54 503.23 788.46 501.53 789.36 C497.22 791.67 493.04 793.99 489.04 796.8 C483.68 800.48 477.85 803.19 472.03 806.05 C468.4 807.83 464.86 809.73 461.34 811.73 C458.93 813.1 456.48 814.42 454.04 815.74 C448.57 818.71 443.17 821.8 437.78 824.9 C431.1 828.72 424.35 832.41 417.58 836.07 C408.49 841 399.47 846.02 390.57 851.27 C386.57 853.62 382.55 855.8 378.39 857.84 C370.16 861.98 362.18 866.63 354.16 871.18 C352.16 872.31 350.15 873.45 348.14 874.58 C344.39 876.7 340.65 878.83 336.91 880.96 C335.31 881.86 333.7 882.77 332.1 883.68 C331.37 884.09 330.65 884.51 329.9 884.94 C326.35 886.94 323.34 888.45 319.23 888.93 C319.23 889.59 319.23 890.25 319.23 890.93 C318.1 891.52 316.98 892.11 315.82 892.72 C314.31 893.52 312.8 894.32 311.29 895.11 C310.55 895.5 309.82 895.89 309.06 896.29 C304.55 898.67 300.07 901.11 295.62 903.6 C290.12 906.65 284.58 909.64 279.05 912.64 C278.11 913.15 277.18 913.66 276.21 914.18 C275.37 914.64 274.53 915.09 273.67 915.56 C271.16 916.97 268.69 918.44 266.23 919.93 C262.09 922.28 257.94 924.6 253.79 926.93 C252.67 927.55 251.55 928.18 250.4 928.83 C249.31 929.44 248.22 930.05 247.11 930.68 C246.12 931.23 245.14 931.78 244.12 932.35 C241.19 933.95 238.22 935.44 235.23 936.93 C233.5 937.84 231.79 938.77 230.07 939.7 C229.13 940.22 228.19 940.73 227.22 941.26 C226.25 941.79 225.29 942.32 224.29 942.86 C223.33 943.39 222.36 943.91 221.37 944.46 C216.29 947.23 211.24 950.05 206.23 952.93 C203.31 954.56 200.4 956.18 197.48 957.8 C196.29 958.46 196.29 958.46 195.07 959.14 C189.14 962.43 183.19 965.69 177.23 968.93 C173.56 970.92 169.89 972.92 166.23 974.93 C165.43 975.36 164.64 975.79 163.82 976.24 C160.24 978.2 156.73 980.22 153.29 982.43 C150.49 984.2 147.67 985.73 144.69 987.18 C138.91 990.04 133.32 993.21 127.73 996.43 C107.69 1007.93 107.69 1007.93 104.23 1007.93 C104.23 1008.59 104.23 1009.25 104.23 1009.93 C103.12 1010.51 102 1011.09 100.86 1011.68 C91.38 1016.61 91.38 1016.61 82.16 1021.99 C77.29 1025 72.19 1027.49 67.02 1029.95 C62.96 1031.92 59.38 1034.16 55.75 1036.84 C54.01 1038.08 52.29 1038.92 50.29 1039.68 C43.56 1042.5 37.33 1046.29 31.01 1049.91 C28.25 1051.48 25.48 1053.02 22.69 1054.54 C20.6 1055.71 18.56 1056.94 16.52 1058.19 C8.81 1062.83 2.52 1066.46 -6.77 1065.93 C-7.91 1065.93 -9.04 1065.93 -10.21 1065.93 C-14.91 1064.61 -18.67 1062.27 -22.81 1059.71 C-25.74 1057.95 -28.71 1056.44 -31.77 1054.93 C-35.14 1053.14 -38.49 1051.31 -41.84 1049.49 C-42.8 1048.96 -43.76 1048.44 -44.75 1047.9 C-52.37 1043.73 -59.89 1039.43 -67.41 1035.09 C-73.47 1031.61 -79.62 1028.43 -85.9 1025.37 C-89.01 1023.81 -91.93 1022.08 -94.84 1020.18 C-100.64 1016.41 -106.57 1012.96 -112.77 1009.93 C-114.95 1008.74 -117.12 1007.52 -119.29 1006.31 C-121.94 1004.83 -124.6 1003.38 -127.27 1001.93 C-129.11 1000.93 -130.94 999.93 -132.77 998.93 C-133.59 998.48 -134.42 998.03 -135.26 997.57 C-138.55 995.77 -141.72 993.96 -144.84 991.86 C-147.63 990.02 -150.49 988.56 -153.48 987.08 C-157.58 985.01 -161.58 982.77 -165.59 980.55 C-167.36 979.57 -169.14 978.59 -170.92 977.61 C-172.18 976.91 -172.18 976.91 -173.47 976.19 C-176.23 974.67 -179 973.17 -181.77 971.68 C-185.47 969.67 -189.09 967.57 -192.71 965.43 C-196.75 963.05 -200.82 960.86 -205.02 958.8 C-209.07 956.82 -212.89 954.7 -216.67 952.27 C-224.75 947.11 -233.12 942.66 -241.74 938.5 C-244.35 937.14 -246.46 935.71 -248.77 933.93 C-255.6 929.94 -262.68 926.4 -269.77 922.93 C-269.77 922.27 -269.77 921.61 -269.77 920.93 C-271.15 920.63 -271.15 920.63 -272.56 920.32 C-278.21 918.7 -283.11 915.55 -288.15 912.61 C-290.14 911.47 -292.12 910.33 -294.11 909.19 C-295.56 908.35 -295.56 908.35 -297.03 907.5 C-300.16 905.7 -303.31 903.95 -306.47 902.21 C-309.08 900.76 -311.67 899.28 -314.26 897.8 C-323.16 892.74 -332 887.7 -341.23 883.25 C-344.98 881.3 -348.44 878.97 -351.97 876.66 C-355.89 874.24 -359.99 872.27 -364.13 870.26 C-367.2 868.71 -369.94 866.86 -372.77 864.93 C-379.64 861 -386.67 857.41 -393.77 853.93 C-393.77 853.27 -393.77 852.61 -393.77 851.93 C-394.85 851.66 -395.92 851.39 -397.02 851.11 C-400.53 850 -401.95 849.06 -404.77 846.93 C-406.63 845.95 -408.51 845.02 -410.4 844.11 C-414.16 842.26 -417.82 840.37 -421.4 838.18 C-431.43 832.03 -441.76 826.33 -452.34 821.18 C-456.97 818.91 -461.14 816.42 -465.36 813.46 C-469.52 810.81 -473.99 808.76 -478.44 806.64 C-481.74 804.94 -484.7 802.99 -487.77 800.93 C-489.69 799.94 -491.63 798.98 -493.59 798.05 C-498.28 795.75 -502.54 793.19 -506.84 790.23 C-509.37 788.53 -512.02 787.25 -514.77 785.93 C-516.46 785.02 -518.14 784.1 -519.82 783.18 C-523.52 781.16 -527.22 779.14 -530.92 777.14 C-541.21 771.56 -551.42 765.87 -561.56 760.02 C-567.03 756.88 -572.54 753.97 -578.21 751.21 C-583.37 748.62 -588.23 745.51 -593.12 742.46 C-598.52 739.15 -604.05 736.25 -609.73 733.46 C-613.58 731.56 -617.24 729.52 -620.84 727.18 C-623.18 725.66 -625.57 724.23 -627.96 722.8 C-629.16 722.09 -629.16 722.09 -630.38 721.36 C-632.04 720.36 -633.71 719.39 -635.39 718.43 C-637.61 717.03 -639.13 715.96 -640.77 713.93 C-641.15 711.74 -641.15 711.74 -641.14 709.21 C-641.14 708.3 -641.14 707.38 -641.13 706.44 C-641.12 705.49 -641.1 704.53 -641.09 703.55 C-641.09 702.6 -641.09 701.66 -641.1 700.68 C-641.06 695.9 -640.78 692.32 -638.77 687.93 C-638.24 685.24 -637.77 682.57 -637.34 679.86 C-636.31 673.76 -635.09 667.79 -633.52 661.8 C-631.5 654.05 -629.81 646.23 -628.27 638.36 C-627.18 632.82 -625.93 627.35 -624.52 621.88 C-622.54 614.08 -620.82 606.25 -619.27 598.36 C-618.18 592.82 -616.93 587.35 -615.52 581.88 C-613.21 572.79 -611.28 563.64 -609.52 554.43 C-609.02 552.08 -608.44 549.74 -607.77 547.43 C-606.76 543.88 -606.02 540.36 -605.34 536.74 C-604.42 532.01 -603.41 527.34 -602.21 522.68 C-601.25 518.94 -600.43 515.23 -599.77 511.43 C-598.94 506.63 -597.82 501.95 -596.61 497.23 C-593.34 484.34 -590.58 471.37 -587.97 458.34 C-586.88 452.99 -585.76 447.7 -584.28 442.45 C-582.42 435.87 -581.11 429.19 -579.77 422.49 C-577.98 413.57 -576.04 404.73 -573.77 395.93 C-571.77 387.62 -570 379.26 -568.26 370.89 C-567.1 365.34 -565.78 359.85 -564.36 354.36 C-563.69 351.74 -563.69 351.74 -563.27 348.24 C-562.38 342.32 -560.65 335.58 -556.77 330.93 C-555.45 330.12 -554.09 329.36 -552.72 328.63 C-547.97 326.05 -543.37 323.27 -538.77 320.43 C-533.53 317.17 -528.26 314.04 -522.82 311.12 C-520.67 309.86 -518.75 308.44 -516.77 306.93 C-515.5 306.19 -514.2 305.49 -512.9 304.8 C-508.04 302.16 -503.43 299.18 -498.82 296.14 C-495.24 293.79 -491.62 291.8 -487.77 289.93 C-485.72 288.78 -483.68 287.61 -481.65 286.43 C-480.64 285.84 -479.62 285.25 -478.58 284.64 C-476.19 283.18 -474.01 281.61 -471.77 279.93 C-470.48 279.17 -469.16 278.44 -467.84 277.74 C-462.77 274.97 -457.88 271.95 -452.98 268.91 C-446.34 264.8 -439.66 260.8 -432.78 257.1 C-430.65 255.85 -428.75 254.41 -426.77 252.93 C-425.46 252.15 -424.12 251.4 -422.77 250.68 C-417.04 247.54 -411.4 244.24 -405.77 240.93 C-404.89 240.41 -404.02 239.89 -403.11 239.36 C-400.59 237.86 -400.59 237.86 -397.65 235.61 C-393.78 232.8 -389.64 230.59 -385.42 228.36 C-381.05 226 -376.98 223.4 -372.96 220.49 C-369.41 217.98 -365.95 215.92 -362.03 214.08 C-357.86 211.95 -353.94 209.37 -349.97 206.89 C-346.59 204.82 -343.17 202.89 -339.68 201.03 C-337.71 199.94 -337.71 199.94 -335.77 198.42 C-333.87 197 -332 195.91 -329.9 194.8 C-325.04 192.16 -320.43 189.18 -315.82 186.14 C-312.24 183.79 -308.62 181.8 -304.77 179.93 C-302.72 178.78 -300.68 177.61 -298.65 176.43 C-297.13 175.54 -297.13 175.54 -295.58 174.64 C-293.19 173.18 -291.01 171.61 -288.77 169.93 C-287.48 169.17 -286.16 168.44 -284.84 167.74 C-279.77 164.97 -274.88 161.95 -269.98 158.91 C-263.34 154.8 -256.66 150.8 -249.78 147.1 C-247.73 145.95 -247.73 145.95 -245.8 144.44 C-243.7 142.87 -241.57 141.62 -239.27 140.36 C-238.14 139.74 -238.14 139.74 -236.99 139.11 C-235.53 138.33 -234.05 137.59 -232.55 136.9 C-230.6 136.05 -230.6 136.05 -229.77 133.93 C-227.79 132.89 -225.79 131.89 -223.77 130.93 C-216.4 126.79 -209.21 122.36 -202.02 117.91 C-197.86 115.37 -193.65 112.91 -189.43 110.47 C-185.47 108.17 -181.56 105.8 -177.66 103.4 C-176.91 102.94 -176.15 102.47 -175.38 102 C-173.82 101.04 -172.27 100.09 -170.72 99.13 C-166.15 96.32 -161.53 93.65 -156.81 91.11 C-154.66 89.86 -152.75 88.43 -150.77 86.93 C-148.54 85.63 -146.27 84.42 -143.99 83.21 C-141.77 81.93 -139.82 80.47 -137.77 78.93 C-136.41 78.13 -135.04 77.36 -133.65 76.61 C-129.33 74.26 -125.13 71.74 -120.94 69.16 C-118.77 67.93 -118.77 67.93 -115.77 66.93 C-115.44 66.27 -115.11 65.61 -114.77 64.93 C-112.79 63.89 -110.79 62.89 -108.77 61.93 C-101.55 57.92 -94.56 53.58 -87.67 49.03 C-84.14 46.72 -80.56 44.78 -76.77 42.93 C-74.74 41.8 -72.72 40.65 -70.71 39.49 C-69.21 38.62 -69.21 38.62 -67.68 37.74 C-64.86 35.98 -62.35 34.02 -59.77 31.93 C-57.8 30.88 -55.8 29.88 -53.77 28.93 C-49.52 27.23 -49.52 27.23 -46.77 23.93 C-44.79 22.89 -42.79 21.89 -40.77 20.93 C-34.47 17.4 -28.3 13.65 -22.15 9.86 C-21.07 9.2 -19.99 8.54 -18.88 7.86 C-16.9 6.63 -14.94 5.36 -13.01 4.05 C-5.12 -1.17 -5.12 -1.17 0 0 Z " fill="#C54166" transform="translate(640.7734375,0.07421875)"/>
<path d="M0 0 C4.77 1.98 9.01 4.9 13.32 7.71 C16.78 9.92 20.32 11.98 23.85 14.05 C24.57 14.47 25.29 14.9 26.03 15.33 C31.7 18.65 37.43 21.84 43.23 24.93 C43.23 25.59 43.23 26.25 43.23 26.93 C44.03 27.15 44.84 27.38 45.66 27.61 C52.18 30.01 57.83 33.56 63.39 37.67 C65.16 38.88 66.89 39.8 68.81 40.72 C73.76 43.15 78.52 45.87 83.29 48.61 C84.21 49.14 85.13 49.67 86.08 50.22 C93.25 54.34 100.35 58.55 107.42 62.83 C119.06 69.91 119.06 69.91 130.9 76.64 C140.75 82.07 150.42 87.8 160.03 93.63 C164.72 96.46 169.45 99.19 174.25 101.83 C176.61 103.14 178.92 104.52 181.23 105.93 C181.94 106.35 182.64 106.78 183.38 107.21 C184.11 107.66 184.84 108.1 185.6 108.55 C186.48 109.08 187.37 109.61 188.27 110.15 C190.31 111.37 192.34 112.6 194.37 113.82 C210.39 123.5 226.54 132.95 242.89 142.06 C246.35 143.99 249.79 145.95 253.23 147.93 C253.23 148.59 253.23 149.25 253.23 149.93 C253.92 150.01 254.62 150.1 255.34 150.19 C258.9 151.1 261.39 152.69 264.48 154.68 C268.24 157.06 272 159.42 275.91 161.55 C279.87 163.71 283.73 166.01 287.59 168.34 C290.31 169.97 293.05 171.58 295.79 173.18 C307.98 180.27 320.12 187.43 332.19 194.73 C337.47 197.91 342.82 200.95 348.23 203.93 C355.33 207.89 362.32 211.9 369.03 216.5 C372.35 218.66 375.84 220.49 379.33 222.36 C385.84 225.88 392.23 229.63 398.48 233.61 C401.02 235.23 403.57 236.62 406.29 237.93 C409.6 239.53 412.41 241.45 415.35 243.64 C417.17 244.89 418.96 245.84 420.95 246.79 C425.16 248.86 429.19 251.16 433.23 253.55 C433.95 253.98 434.68 254.41 435.43 254.85 C441.25 258.3 447 261.87 452.7 265.53 C456.51 267.95 460.38 270.08 464.46 272.03 C467.2 273.42 469.67 275.22 472.23 276.93 C473.76 277.77 475.3 278.6 476.85 279.43 C482.14 282.27 487.28 285.32 492.41 288.43 C500.07 293.05 507.75 297.61 515.48 302.11 C516.49 302.7 517.5 303.3 518.55 303.9 C525.04 307.68 531.55 311.41 538.14 315 C541.84 317.04 545.24 319.29 548.62 321.81 C550.44 323.13 550.44 323.13 553.54 324.55 C556.23 325.93 556.23 325.93 558.23 328.93 C557.49 329.34 556.76 329.76 556.01 330.18 C547.16 335.22 538.36 340.34 529.58 345.48 C521.64 350.12 513.66 354.69 505.65 359.19 C504.83 359.66 504.01 360.12 503.17 360.6 C502.46 361 501.74 361.4 501 361.82 C499.07 362.93 499.07 362.93 497.23 364.93 C495.57 365.61 493.9 366.27 492.23 366.93 C490.47 367.87 488.74 368.86 487.02 369.87 C486.03 370.45 485.04 371.03 484.02 371.62 C482.97 372.24 481.93 372.85 480.85 373.49 C479.77 374.12 478.69 374.75 477.58 375.41 C471.23 379.14 464.91 382.91 458.61 386.73 C453.13 390.03 447.53 393.11 441.93 396.19 C436.42 399.23 431 402.41 425.62 405.67 C421 408.48 416.32 411.18 411.61 413.85 C407.17 416.38 402.76 418.95 398.35 421.55 C383.8 430.13 369.22 438.67 354.54 447.03 C350.09 449.58 345.67 452.18 341.25 454.79 C328.47 462.32 315.68 469.84 302.79 477.18 C292.22 483.19 281.76 489.39 271.35 495.68 C266.3 498.72 261.19 501.6 255.99 504.39 C251.65 506.8 247.47 509.45 243.27 512.09 C240.31 513.87 237.31 515.39 234.23 516.93 C231.49 518.47 228.8 520.07 226.1 521.68 C224.57 522.58 223.04 523.48 221.52 524.39 C220.41 525.04 220.41 525.04 219.27 525.71 C212.11 529.95 204.9 534.11 197.67 538.23 C189.89 542.66 182.14 547.14 174.47 551.78 C169.33 554.88 164.12 557.86 158.89 560.83 C154.81 563.15 150.77 565.54 146.73 567.93 C141.58 570.96 136.42 573.97 131.23 576.93 C125.99 579.9 120.79 582.93 115.6 585.99 C114.87 586.42 114.14 586.85 113.39 587.29 C110.36 589.08 107.32 590.87 104.29 592.66 C98.51 596.05 92.69 599.36 86.85 602.64 C78.53 607.32 70.28 612.04 62.19 617.1 C57.19 620.18 52.08 623.05 46.98 625.93 C39.59 630.11 32.22 634.33 24.9 638.64 C23.46 639.5 22.01 640.35 20.55 641.19 C17.15 643.18 13.77 645.2 10.46 647.34 C4.23 651.29 -1.23 654.27 -8.78 653.71 C-14.22 652.29 -18.56 649.26 -23.12 646.06 C-25.82 644.21 -28.61 642.51 -31.4 640.8 C-32.48 640.13 -33.56 639.47 -34.68 638.78 C-38.27 636.63 -41.93 634.64 -45.61 632.66 C-55.06 627.49 -64.3 621.95 -73.6 616.52 C-75.61 615.35 -77.63 614.17 -79.65 612.99 C-80.66 612.4 -81.67 611.81 -82.71 611.2 C-89.39 607.3 -96.11 603.44 -102.84 599.61 C-109.98 595.55 -117.07 591.39 -124.11 587.14 C-133.61 581.39 -143.2 575.78 -152.9 570.36 C-158.52 567.22 -164.07 563.98 -169.58 560.65 C-187.35 549.91 -205.41 539.63 -223.4 529.26 C-232.94 523.75 -242.45 518.17 -251.93 512.55 C-257.93 509 -263.96 505.52 -270.02 502.08 C-274.97 499.25 -279.87 496.33 -284.77 493.43 C-291.94 489.18 -299.13 484.99 -306.37 480.88 C-312.49 477.37 -318.56 473.78 -324.63 470.19 C-343.29 459.18 -362 448.24 -380.77 437.43 C-415.32 417.51 -415.32 417.51 -428.04 409.58 C-431.61 407.42 -435.28 405.46 -438.96 403.49 C-442.13 401.73 -445.2 399.84 -448.27 397.93 C-453.02 394.97 -457.82 392.23 -462.74 389.59 C-466.38 387.59 -469.95 385.48 -473.52 383.36 C-480.47 379.24 -487.48 375.25 -494.52 371.3 C-502.73 366.69 -510.81 361.95 -518.77 356.93 C-525.75 352.56 -532.74 348.32 -540 344.44 C-544.14 342.18 -548.19 339.76 -552.24 337.34 C-554.77 335.82 -554.77 335.82 -557.77 334.93 C-557.52 333.08 -557.52 333.08 -556.77 330.93 C-555.02 329.63 -555.02 329.63 -552.77 328.52 C-549.53 326.84 -546.38 325.13 -543.27 323.21 C-542.53 322.75 -541.79 322.29 -541.02 321.82 C-539.91 321.13 -539.91 321.13 -538.77 320.43 C-533.53 317.17 -528.26 314.04 -522.82 311.12 C-520.67 309.86 -518.75 308.44 -516.77 306.93 C-515.5 306.19 -514.2 305.49 -512.9 304.8 C-508.04 302.16 -503.43 299.18 -498.82 296.14 C-495.24 293.79 -491.62 291.8 -487.77 289.93 C-485.72 288.78 -483.68 287.61 -481.65 286.43 C-480.64 285.84 -479.62 285.25 -478.58 284.64 C-476.19 283.18 -474.01 281.61 -471.77 279.93 C-470.48 279.17 -469.16 278.44 -467.84 277.74 C-462.77 274.97 -457.88 271.95 -452.98 268.91 C-446.34 264.8 -439.66 260.8 -432.78 257.1 C-430.65 255.85 -428.75 254.41 -426.77 252.93 C-425.46 252.15 -424.12 251.4 -422.77 250.68 C-417.04 247.54 -411.4 244.24 -405.77 240.93 C-404.89 240.41 -404.02 239.89 -403.11 239.36 C-400.59 237.86 -400.59 237.86 -397.65 235.61 C-393.78 232.8 -389.64 230.59 -385.42 228.36 C-381.05 226 -376.98 223.4 -372.96 220.49 C-369.41 217.98 -365.95 215.92 -362.03 214.08 C-357.86 211.95 -353.94 209.37 -349.97 206.89 C-346.59 204.82 -343.17 202.89 -339.68 201.03 C-337.71 199.94 -337.71 199.94 -335.77 198.42 C-333.87 197 -332 195.91 -329.9 194.8 C-325.04 192.16 -320.43 189.18 -315.82 186.14 C-312.24 183.79 -308.62 181.8 -304.77 179.93 C-302.72 178.78 -300.68 177.61 -298.65 176.43 C-297.13 175.54 -297.13 175.54 -295.58 174.64 C-293.19 173.18 -291.01 171.61 -288.77 169.93 C-287.48 169.17 -286.16 168.44 -284.84 167.74 C-279.77 164.97 -274.88 161.95 -269.98 158.91 C-263.34 154.8 -256.66 150.8 -249.78 147.1 C-247.73 145.95 -247.73 145.95 -245.8 144.44 C-243.7 142.87 -241.57 141.62 -239.27 140.36 C-238.14 139.74 -238.14 139.74 -236.99 139.11 C-235.53 138.33 -234.05 137.59 -232.55 136.9 C-230.6 136.05 -230.6 136.05 -229.77 133.93 C-227.79 132.89 -225.79 131.89 -223.77 130.93 C-216.4 126.79 -209.21 122.36 -202.02 117.91 C-197.86 115.37 -193.65 112.91 -189.43 110.47 C-185.47 108.17 -181.56 105.8 -177.66 103.4 C-176.91 102.94 -176.15 102.47 -175.38 102 C-173.82 101.04 -172.27 100.09 -170.72 99.13 C-166.15 96.32 -161.53 93.65 -156.81 91.11 C-154.66 89.86 -152.75 88.43 -150.77 86.93 C-148.54 85.63 -146.27 84.42 -143.99 83.21 C-141.77 81.93 -139.82 80.47 -137.77 78.93 C-136.41 78.13 -135.04 77.36 -133.65 76.61 C-129.33 74.26 -125.13 71.74 -120.94 69.16 C-118.77 67.93 -118.77 67.93 -115.77 66.93 C-115.44 66.27 -115.11 65.61 -114.77 64.93 C-112.79 63.89 -110.79 62.89 -108.77 61.93 C-101.55 57.92 -94.56 53.58 -87.67 49.03 C-84.14 46.72 -80.56 44.78 -76.77 42.93 C-74.74 41.8 -72.72 40.65 -70.71 39.49 C-69.21 38.62 -69.21 38.62 -67.68 37.74 C-64.86 35.98 -62.35 34.02 -59.77 31.93 C-57.8 30.88 -55.8 29.88 -53.77 28.93 C-49.52 27.23 -49.52 27.23 -46.77 23.93 C-44.79 22.89 -42.79 21.89 -40.77 20.93 C-34.47 17.4 -28.3 13.65 -22.15 9.86 C-21.07 9.2 -19.99 8.54 -18.88 7.86 C-16.9 6.63 -14.94 5.36 -13.01 4.05 C-5.12 -1.17 -5.12 -1.17 0 0 Z " fill="#E57191" transform="translate(640.7734375,0.07421875)"/>
<path d="M0 0 C1.51 0 3.03 0.01 4.54 0.03 C5.33 0.03 6.13 0.04 6.95 0.04 C9.5 0.05 12.05 0.08 14.59 0.1 C16.32 0.11 18.04 0.12 19.77 0.13 C24 0.15 28.24 0.19 32.47 0.23 C34.02 3.33 33.83 6.65 33.99 10.07 C34.03 10.9 34.07 11.74 34.11 12.6 C34.62 23.66 34.85 34.73 35.1 45.81 C35.19 49.86 35.28 53.92 35.38 57.98 C35.56 65.88 35.74 73.77 35.92 81.67 C36.15 91.7 36.37 101.72 36.61 111.75 C36.72 116.39 36.82 121.03 36.92 125.67 C37.24 139.36 37.66 153.03 38.24 166.71 C38.59 174.85 38.79 182.98 38.97 191.12 C39.03 193.76 39.1 196.39 39.16 199.02 C39.25 202.45 39.31 205.88 39.36 209.31 C39.42 212.58 39.55 215.82 39.74 219.08 C40.27 229.81 40.27 229.81 38.23 233.42 C36.4 235.07 34.66 236.11 32.47 237.23 C31.75 237.68 31.04 238.14 30.3 238.61 C28.01 240.06 25.67 241.37 23.28 242.66 C22.51 243.12 21.73 243.58 20.94 244.05 C8.98 250.55 -5.07 244.96 -17.53 242.04 C-20.22 241.42 -22.92 240.8 -25.61 240.18 C-27.4 239.77 -29.19 239.36 -30.98 238.95 C-38.36 237.25 -45.75 235.66 -53.16 234.1 C-62.48 232.13 -71.76 230.04 -81.03 227.85 C-92.39 225.18 -103.76 222.57 -115.16 220.04 C-115.93 219.87 -116.7 219.7 -117.49 219.52 C-127.04 217.4 -136.59 215.32 -146.2 213.51 C-151.28 212.54 -156.27 211.31 -161.28 210.04 C-167.07 208.59 -172.9 207.29 -178.72 205.98 C-179.38 205.83 -180.04 205.68 -180.71 205.53 C-192.02 202.98 -203.35 200.55 -214.69 198.16 C-223.52 196.3 -232.35 194.41 -241.16 192.41 C-242.02 192.22 -242.88 192.02 -243.77 191.82 C-246.03 191.31 -248.28 190.77 -250.53 190.23 C-251.22 190.07 -251.92 189.91 -252.63 189.75 C-254.56 189.28 -254.56 189.28 -257.53 188.23 C-258.66 184.84 -258.43 184.21 -257.27 180.98 C-256.98 180.15 -256.69 179.32 -256.38 178.46 C-256.06 177.58 -255.74 176.7 -255.41 175.79 C-255.09 174.89 -254.77 174 -254.44 173.08 C-252.01 166.37 -249.38 159.77 -246.53 153.23 C-237.83 153.73 -229.54 155.07 -221.03 156.91 C-219.14 157.32 -219.14 157.32 -217.2 157.73 C-213.31 158.55 -209.42 159.39 -205.53 160.23 C-203.28 160.71 -201.04 161.19 -198.79 161.68 C-195.45 162.39 -192.11 163.11 -188.77 163.83 C-167.21 168.46 -145.6 172.96 -123.92 177 C-118.63 178 -113.4 179.15 -108.16 180.39 C-92.74 183.94 -77.17 186.9 -61.64 189.99 C-52.76 191.76 -43.9 193.62 -35.06 195.58 C-30.78 196.53 -26.49 197.46 -22.2 198.35 C-21.42 198.51 -20.64 198.67 -19.84 198.84 C-13.16 200.06 -13.16 200.06 -6.93 198.19 C-4.78 195.18 -5.14 192.08 -5.18 188.51 C-5.18 187.72 -5.18 186.93 -5.18 186.11 C-5.18 183.44 -5.2 180.78 -5.22 178.11 C-5.23 176.2 -5.23 174.29 -5.23 172.38 C-5.24 168.27 -5.25 164.16 -5.28 160.04 C-5.31 153.54 -5.33 147.04 -5.34 140.55 C-5.36 127.93 -5.41 115.31 -5.46 102.69 C-5.52 86.62 -5.57 70.55 -5.6 54.49 C-5.61 48.02 -5.64 41.55 -5.67 35.09 C-5.69 31.07 -5.7 27.06 -5.7 23.04 C-5.71 21.17 -5.72 19.3 -5.73 17.44 C-5.75 14.89 -5.75 12.35 -5.75 9.81 C-5.76 9.07 -5.77 8.32 -5.78 7.55 C-5.76 2.36 -5.67 0.36 0 0 Z " fill="#FBFCFD" transform="translate(608.53173828125,96.77294921875)"/>
<path d="M0 0 C2.09 1.02 2.09 1.02 4.16 2.3 C5.34 3.02 5.34 3.02 6.53 3.74 C7.79 4.52 7.79 4.52 9.06 5.31 C10.86 6.41 12.66 7.51 14.45 8.6 C15.83 9.45 15.83 9.45 17.24 10.31 C21.58 12.96 25.95 15.57 30.31 18.19 C31.98 19.19 33.65 20.19 35.31 21.19 C36.5 21.9 36.5 21.9 37.71 22.63 C63.7 38.22 63.7 38.22 89.69 53.81 C90.5 54.3 91.32 54.79 92.16 55.3 C93.86 56.31 95.55 57.33 97.25 58.35 C101.49 60.9 105.74 63.44 109.98 65.98 C115 68.97 120 71.98 125 75 C125.95 75.58 126.91 76.15 127.89 76.74 C130.81 78.51 133.72 80.28 136.62 82.06 C137.53 82.61 138.44 83.16 139.37 83.72 C140.21 84.24 141.05 84.75 141.91 85.29 C142.66 85.74 143.4 86.19 144.16 86.66 C146 88 146 88 148 91 C148.04 93.43 148.04 93.43 147 96 C144.76 97.61 142.75 98.82 140.31 100.06 C138.86 100.83 137.41 101.6 135.96 102.37 C134.78 102.99 134.78 102.99 133.57 103.62 C130.77 105.12 128.03 106.7 125.29 108.29 C123.34 109.4 121.39 110.51 119.44 111.62 C118.51 112.17 117.58 112.72 116.63 113.28 C112.73 115.47 109.93 116.95 105.42 117.18 C100.76 115.57 96.93 113.19 92.81 110.5 C90.96 109.32 89.1 108.14 87.24 106.96 C86.24 106.32 85.24 105.69 84.22 105.03 C78.36 101.33 72.43 97.77 66.5 94.19 C57.64 88.83 48.81 83.44 40 78 C21.9 66.82 21.9 66.82 3.69 55.81 C-5.78 50.16 -15.15 44.37 -24.51 38.54 C-26.94 37.03 -29.39 35.55 -31.84 34.06 C-32.96 33.38 -32.96 33.38 -34.11 32.68 C-35.5 31.83 -36.89 30.99 -38.29 30.16 C-42.89 27.34 -42.89 27.34 -44 24 C-39.79 19.29 -35 16.35 -29.56 13.19 C-28.68 12.67 -27.79 12.15 -26.88 11.61 C-25.1 10.57 -23.31 9.52 -21.52 8.48 C-19.25 7.15 -17 5.78 -14.75 4.41 C-13.52 3.67 -12.29 2.93 -11.06 2.19 C-10 1.54 -8.94 0.9 -7.85 0.23 C-4.51 -1.21 -3.43 -0.96 0 0 Z " fill="#FBFCFD" transform="translate(583,411)"/>
<path d="" fill="#000000" transform="translate(0,0)"/>
<path d="" fill="#000000" transform="translate(0,0)"/>
<path d="" fill="#000000" transform="translate(0,0)"/>
<path d="" fill="#000000" transform="translate(0,0)"/>
<path d="" fill="#000000" transform="translate(0,0)"/>
<path d="" fill="#000000" transform="translate(0,0)"/>
<path d="" fill="#000000" transform="translate(0,0)"/>
<path d="" fill="#000000" transform="translate(0,0)"/>
<path d="" fill="#000000" transform="translate(0,0)"/>
<path d="" fill="#000000" transform="translate(0,0)"/>
<path d="" fill="#000000" transform="translate(0,0)"/>
<path d="" fill="#000000" transform="translate(0,0)"/>
<path d="" fill="#000000" transform="translate(0,0)"/>
<path d="" fill="#000000" transform="translate(0,0)"/>
<path d="" fill="#000000" transform="translate(0,0)"/>
<path d="" fill="#000000" transform="translate(0,0)"/>
<path d="" fill="#000000" transform="translate(0,0)"/>
<path d="" fill="#000000" transform="translate(0,0)"/>
<path d="" fill="#000000" transform="translate(0,0)"/>
<path d="" fill="#000000" transform="translate(0,0)"/>
<path d="" fill="#000000" transform="translate(0,0)"/>
</svg>
